<mxfile host="app.diagrams.net" modified="2024-05-31T05:22:39.392Z" agent="Mozilla/5.0 (Windows NT 10.0; Win64; x64) AppleWebKit/537.36 (KHTML, like Gecko) Chrome/118.0.0.0 Safari/537.36" version="24.4.10" etag="ZcFjNsGfXcnSoWnt4WV4" type="github">
  <diagram name="Страница — 1" id="bbgOabXcVR2iCqM7PnaE">
    <mxGraphModel>
      <root>
        <mxCell id="0" />
        <mxCell id="1" parent="0" />
      </root>
    </mxGraphModel>
  </diagram>
</mxfile>
